<?xml version="1.0" encoding="UTF-8" standalone="no"?>
<!-- Created with matplotlib (http://matplotlib.org/) -->

<svg
   xmlns:osb="http://www.openswatchbook.org/uri/2009/osb"
   xmlns:dc="http://purl.org/dc/elements/1.1/"
   xmlns:cc="http://creativecommons.org/ns#"
   xmlns:rdf="http://www.w3.org/1999/02/22-rdf-syntax-ns#"
   xmlns:svg="http://www.w3.org/2000/svg"
   xmlns="http://www.w3.org/2000/svg"
   xmlns:sodipodi="http://sodipodi.sourceforge.net/DTD/sodipodi-0.dtd"
   xmlns:inkscape="http://www.inkscape.org/namespaces/inkscape"
   height="72pt"
   version="1.1"
   viewBox="0 0 72 72"
   width="72pt"
   id="svg13"
   sodipodi:docname="export.svg"
   inkscape:version="0.92.3 (unknown)"
   inkscape:export-filename="/media/jdilly/Storage/Repositories/Beta-Beat.src/udillyties/figure_gui/images/export.png"
   inkscape:export-xdpi="96"
   inkscape:export-ydpi="96">
  <metadata
     id="metadata17">
    <rdf:RDF>
      <cc:Work
         rdf:about="">
        <dc:format>image/svg+xml</dc:format>
        <dc:type
           rdf:resource="http://purl.org/dc/dcmitype/StillImage" />
        <dc:title></dc:title>
      </cc:Work>
    </rdf:RDF>
  </metadata>
  <sodipodi:namedview
     pagecolor="#ffffff"
     bordercolor="#666666"
     borderopacity="1"
     objecttolerance="10"
     gridtolerance="10"
     guidetolerance="10"
     inkscape:pageopacity="0"
     inkscape:pageshadow="2"
     inkscape:window-width="1150"
     inkscape:window-height="834"
     id="namedview15"
     showgrid="false"
     inkscape:zoom="2.4583333"
     inkscape:cx="48"
     inkscape:cy="48"
     inkscape:window-x="460"
     inkscape:window-y="135"
     inkscape:window-maximized="0"
     inkscape:current-layer="svg13" />
  <defs
     id="defs4">
    <linearGradient
       id="linearGradient6086"
       osb:paint="solid">
      <stop
         style="stop-color:#000000;stop-opacity:1;"
         offset="0"
         id="stop6084" />
    </linearGradient>
    <linearGradient
       id="linearGradient6074"
       osb:paint="solid">
      <stop
         style="stop-color:#000000;stop-opacity:1;"
         offset="0"
         id="stop6072" />
    </linearGradient>
    <linearGradient
       id="linearGradient6068"
       osb:paint="solid">
      <stop
         style="stop-color:#000000;stop-opacity:1;"
         offset="0"
         id="stop6066" />
    </linearGradient>
    <linearGradient
       id="linearGradient4553"
       osb:paint="solid">
      <stop
         style="stop-color:#000000;stop-opacity:1;"
         offset="0"
         id="stop4551" />
    </linearGradient>
    <style
       type="text/css"
       id="style2">
*{stroke-linecap:butt;stroke-linejoin:round;}
  </style>
  </defs>
  <g
     id="figure_1"
     style="display:inline;fill:#000000;fill-opacity:1;fill-rule:evenodd;stroke:none;stroke-linecap:butt;stroke-linejoin:round;stroke-opacity:1">
    <g
       id="patch_1"
       style="fill:#000000;fill-opacity:1;fill-rule:evenodd;stroke:none;stroke-linecap:butt;stroke-linejoin:round;stroke-opacity:1">
      <path
         d="M 0,72 H 72 V 0 H 0 Z"
         style="opacity:0;fill:#000000;fill-opacity:1;fill-rule:evenodd;stroke:none;stroke-linecap:butt;stroke-linejoin:round;stroke-opacity:1"
         id="path6"
         inkscape:connector-curvature="0" />
    </g>
    <g
       id="text_1"
       style="fill:#000000;fill-opacity:1;fill-rule:evenodd;stroke:none;stroke-linecap:butt;stroke-linejoin:round;stroke-opacity:1">
      <path
         d="M 21.4225,61.72875 V 47.161875 H 50.566875 V 61.72875 Z m 34,0 V 45.94 c 0,-2.008125 -1.625625,-3.644375 -3.63375,-3.644375 h -31.5775 c -2.008125,0 -3.644375,1.63625 -3.644375,3.644375 V 61.72875 H 11.71125 V 13.161875 h 4.855625 V 28.94 c 0,2.01875 1.63625,3.644375 3.644375,3.644375 h 21.855625 c 2.01875,0 3.644375,-1.625625 3.644375,-3.644375 V 13.161875 c 0.765,0 2.241875,0.605625 2.773125,1.136875 L 59.14125,24.955625 c 0.499375,0.499375 1.1475,2.050625 1.1475,2.773125 v 34 z M 40.855625,26.5175 c 0,0.6375 -0.57375,1.21125 -1.21125,1.21125 h -7.28875 c -0.648125,0 -1.21125,-0.57375 -1.21125,-1.21125 V 14.373125 c 0,-0.648125 0.563125,-1.21125 1.21125,-1.21125 h 7.28875 c 0.6375,0 1.21125,0.563125 1.21125,1.21125 z m 24.28875,1.21125 c 0,-2.008125 -1.136875,-4.78125 -2.581875,-6.22625 L 51.9375,10.8775 C 50.4925,9.443125 47.719375,8.295625 45.71125,8.295625 H 10.5 c -2.008125,0 -3.644375,1.63625 -3.644375,3.644375 v 51 c 0,2.01875 1.63625,3.644375 3.644375,3.644375 h 51 c 2.008125,0 3.644375,-1.625625 3.644375,-3.644375 z"
         id="path9"
         style="fill:#000000;fill-opacity:1;fill-rule:evenodd;stroke:none;stroke-linecap:butt;stroke-linejoin:round;stroke-opacity:1"
         inkscape:connector-curvature="0" />
    </g>
  </g>
  <g
     id="figure_1-3"
     style="display:inline;fill:#000000;fill-opacity:1;fill-rule:evenodd;stroke:#ffffff;stroke-width:3.05637527;stroke-linecap:butt;stroke-linejoin:round;stroke-miterlimit:4;stroke-dasharray:none;stroke-opacity:1"
     transform="matrix(0.49743615,0,0,0.52422287,39.448231,33.627977)">
    <g
       id="patch_1-6"
       style="fill:#000000;fill-opacity:1;fill-rule:evenodd;stroke:#ffffff;stroke-width:3.05637527;stroke-linecap:butt;stroke-linejoin:round;stroke-miterlimit:4;stroke-dasharray:none;stroke-opacity:1">
      <path
         d="M 0,72 H 72 V 0 H 0 Z"
         style="opacity:0;fill:#000000;fill-opacity:1;fill-rule:evenodd;stroke:#ffffff;stroke-width:3.05637527;stroke-linecap:butt;stroke-linejoin:round;stroke-miterlimit:4;stroke-dasharray:none;stroke-opacity:1"
         id="path6-7"
         inkscape:connector-curvature="0" />
    </g>
    <g
       id="text_1-5"
       style="fill:#000000;fill-opacity:1;fill-rule:evenodd;stroke:#ffffff;stroke-width:3.05637527;stroke-linecap:butt;stroke-linejoin:round;stroke-miterlimit:4;stroke-dasharray:none;stroke-opacity:1">
      <path
         d="m 62.71125,37.44 c 0,-1.29625 -0.48875,-2.539375 -1.4025,-3.42125 L 36.605625,9.315625 C 35.691875,8.4125 34.438125,7.88125 33.1525,7.88125 c -1.285625,0 -2.5075,0.53125 -3.410625,1.434375 l -2.8475,2.8475 c -0.91375,0.87125 -1.445,2.125 -1.445,3.42125 0,1.285625 0.53125,2.539375 1.445,3.410625 l 11.11375,11.15625 h -26.71125 c -2.730625,0 -4.44125,2.27375 -4.44125,4.855625 V 39.8625 c 0,2.581875 1.710625,4.86625 4.44125,4.86625 h 26.71125 L 26.894375,55.8425 c -0.91375,0.91375 -1.445,2.1675 -1.445,3.453125 0,1.285625 0.53125,2.539375 1.445,3.453125 l 2.8475,2.8475 c 0.903125,0.87125 2.125,1.4025 3.410625,1.4025 1.285625,0 2.539375,-0.53125 3.453125,-1.4025 L 61.30875,40.893125 c 0.91375,-0.91375 1.4025,-2.1675 1.4025,-3.453125"
         id="path9-3"
         inkscape:connector-curvature="0"
         style="fill:#000000;fill-opacity:1;fill-rule:evenodd;stroke:#ffffff;stroke-width:3.05637527;stroke-linecap:butt;stroke-linejoin:round;stroke-miterlimit:4;stroke-dasharray:none;stroke-opacity:1" />
    </g>
  </g>
</svg>
